<?xml version="1.0" standalone="no"?>
<!DOCTYPE svg PUBLIC "-//W3C//DTD SVG 20010904//EN"
 "http://www.w3.org/TR/2001/REC-SVG-20010904/DTD/svg10.dtd">
<svg version="1.0" xmlns="http://www.w3.org/2000/svg"
 width="1200.000000pt" height="900.000000pt" viewBox="0 0 1200.000000 900.000000"
 preserveAspectRatio="xMidYMid meet">

<g transform="translate(0.000000,900.000000) scale(0.100000,-0.100000)"
fill="#000000" stroke="none">
<path d="M5923 8346 c-134 -31 -260 -109 -342 -212 -21 -27 -64 -94 -95 -148
-112 -195 -239 -352 -316 -391 -25 -13 -136 -51 -246 -84 -448 -135 -583 -198
-621 -290 -8 -19 -32 -60 -53 -90 -60 -89 -103 -182 -91 -194 21 -21 12 -56
-18 -71 -26 -14 -30 -23 -42 -98 -8 -47 -14 -155 -14 -248 0 -143 3 -175 22
-236 12 -38 36 -89 53 -113 37 -50 107 -97 160 -106 34 -6 39 -10 43 -38 2
-18 5 16 5 76 2 99 5 114 41 205 58 145 301 655 319 668 8 6 31 17 51 24 20 7
144 52 276 100 132 48 252 90 266 93 24 6 26 3 47 -66 43 -148 174 -292 338
-374 80 -39 102 -46 166 -49 l73 -3 -63 10 c-83 13 -157 41 -231 89 -108 70
-197 163 -227 237 -15 37 -15 38 3 15 30 -37 101 -52 242 -52 l126 0 -41 25
c-67 40 -141 179 -159 296 -6 43 -10 47 -46 58 -57 17 -72 47 -77 150 -3 74 0
91 18 119 28 45 98 76 154 68 134 -19 202 -18 281 3 142 39 304 126 454 243
71 56 75 55 85 -25 4 -27 20 -80 37 -116 30 -68 108 -191 121 -191 3 0 16 26
28 58 82 217 58 408 -66 522 -55 51 -162 101 -264 125 -101 24 -315 29 -397
11z m-563 -625 c-68 -137 -105 -176 -189 -201 -65 -20 -340 -64 -348 -56 -2 2
9 7 24 10 15 4 99 29 185 57 181 58 210 78 313 217 33 45 61 79 63 77 2 -1
-20 -48 -48 -104z m150 -345 c0 -2 -8 -10 -17 -17 -16 -13 -17 -12 -4 4 13 16
21 21 21 13z m-40 -49 c0 -2 -10 -12 -22 -23 l-23 -19 19 23 c18 21 26 27 26
19z m-50 -61 c0 -2 -8 -10 -17 -17 -16 -13 -17 -12 -4 4 13 16 21 21 21 13z
m-34 -84 c2 -46 2 -46 -8 -13 -8 28 -6 61 4 61 2 0 4 -21 4 -48z m23 -97 c0
-5 -4 -3 -9 5 -5 8 -9 22 -9 30 0 16 17 -16 18 -35z m-1289 -440 c24 -115 117
-249 220 -316 l48 -31 -14 -42 c-8 -22 -16 -72 -17 -109 l-2 -69 -38 5 c-117
16 -197 136 -219 332 -9 77 -4 285 7 285 2 0 9 -25 15 -55z"/>
<path d="M5933 7625 c-40 -17 -43 -42 -7 -51 59 -15 191 21 181 49 -6 18 -135
20 -174 2z"/>
<path d="M5550 7610 c0 -5 8 -10 18 -10 34 0 57 -38 56 -91 0 -27 3 -49 8 -49
12 0 10 85 -3 114 -7 14 -25 30 -42 36 -37 12 -37 12 -37 0z"/>
<path d="M6353 7514 c-16 -43 67 -198 97 -179 26 16 -7 124 -52 173 -25 26
-36 28 -45 6z"/>
<path d="M5903 7488 c-37 -18 -26 -28 13 -12 42 18 66 12 94 -23 11 -14 23
-23 26 -20 4 3 -7 20 -24 37 -32 32 -68 38 -109 18z"/>
<path d="M6147 7353 c-3 -10 -8 -36 -12 -58 -10 -58 -31 -88 -61 -82 -27 5
-33 -7 -8 -17 40 -15 78 37 90 122 6 50 1 71 -9 35z"/>
<path d="M6293 7343 c-37 -7 -26 -22 11 -16 26 4 38 0 55 -18 22 -24 30 -14 9
13 -15 19 -44 27 -75 21z"/>
<path d="M5910 7169 c0 -25 48 -68 89 -79 44 -12 51 -12 51 -1 0 5 -18 11 -39
15 -29 4 -48 16 -70 43 -19 24 -31 32 -31 22z"/>
<path d="M6282 7145 c3 -3 45 -10 94 -16 219 -27 315 -68 435 -186 49 -47 91
-84 94 -81 3 2 -34 43 -83 90 -90 88 -147 124 -242 151 -97 28 -315 59 -298
42z"/>
<path d="M7089 6653 c12 -22 85 -92 80 -77 -5 14 -77 94 -84 94 -3 0 -1 -8 4
-17z"/>
<path d="M6682 6325 c-1 -162 2 -255 9 -265 7 -11 9 4 4 53 -4 39 -3 67 3 67
17 0 249 -236 316 -323 77 -99 77 -99 52 -224 -34 -174 -103 -690 -150 -1128
-9 -82 -23 -212 -31 -287 -8 -75 -15 -151 -15 -169 0 -31 1 -30 28 20 31 59
84 117 114 127 24 7 68 -22 83 -54 5 -12 12 -22 16 -22 3 0 13 25 23 56 20 63
56 107 80 98 23 -9 55 -104 63 -191 l8 -78 49 -6 c32 -3 54 -12 63 -25 32 -42
-5 -159 -95 -308 -23 -37 -42 -70 -42 -72 0 -2 42 -4 94 -4 66 0 96 4 99 13 2
6 8 0 11 -14 6 -19 -4 -52 -38 -127 -32 -73 -41 -104 -33 -109 7 -4 95 -45
196 -91 148 -66 187 -80 197 -70 6 7 68 109 137 226 l126 212 -9 106 c-4 58
-10 107 -12 108 -1 2 -45 29 -95 60 -51 32 -93 60 -93 62 0 3 27 57 61 120 33
63 57 114 52 114 -10 0 -203 -360 -203 -379 0 -26 -81 -170 -109 -194 -33 -28
-137 -55 -152 -40 -5 5 -14 36 -20 68 -22 120 9 307 96 571 50 154 156 416
217 537 15 31 24 57 18 57 -5 0 -17 -15 -26 -32 -9 -18 -50 -68 -91 -111 -42
-45 -71 -82 -67 -89 4 -6 3 -8 -3 -5 -16 10 -34 -18 -27 -39 6 -17 5 -17 -8 1
-13 17 -185 475 -279 742 -42 121 -34 265 21 372 11 23 18 47 14 53 -5 7 -3 8
6 3 10 -6 12 -4 7 8 -3 9 -3 16 1 15 4 -2 30 20 57 47 59 59 144 105 236 130
60 16 68 16 104 1 l39 -17 -20 23 c-11 13 -96 109 -189 213 -209 236 -205 232
-205 219 0 -6 78 -98 173 -204 94 -105 173 -196 175 -200 2 -5 -14 -4 -34 2
-126 34 -309 -65 -454 -248 l-56 -70 -37 68 -38 69 38 71 c45 87 120 164 194
201 39 20 46 26 24 22 -76 -15 -191 -127 -239 -233 -10 -23 -22 -42 -26 -42
-4 0 -21 19 -38 43 -50 69 -181 210 -272 294 l-85 77 -5 186 -6 185 -2 -250z
m966 -392 c-10 -2 -26 -2 -35 0 -10 3 -2 5 17 5 19 0 27 -2 18 -5z m-78 -13
c-14 -4 -32 -8 -40 -9 -13 -1 -13 0 0 9 8 5 26 9 40 9 l25 -1 -25 -8z m-190
-93 c0 -1 -28 -29 -62 -62 l-63 -60 60 63 c55 58 65 67 65 59z m-265 -127 c9
-16 13 -30 11 -30 -3 0 -12 14 -21 30 -9 17 -13 30 -11 30 3 0 12 -13 21 -30z
m115 -40 c-12 -16 -24 -30 -26 -30 -3 0 4 14 16 30 12 17 24 30 26 30 3 0 -4
-13 -16 -30z m-80 -35 c0 -5 -5 -3 -10 5 -5 8 -10 20 -10 25 0 6 5 3 10 -5 5
-8 10 -19 10 -25z m52 -122 c-3 -16 -7 -22 -10 -15 -4 13 4 42 11 42 2 0 2
-12 -1 -27z m57 -73 c0 -8 -7 1 -14 20 -18 46 -17 64 0 25 8 -16 14 -37 14
-45z m-30 -20 c0 -8 -6 0 -14 19 -8 18 -15 36 -15 40 1 13 29 -45 29 -59z m21
-55 c0 -5 -5 -3 -10 5 -5 8 -10 20 -10 25 0 6 5 3 10 -5 5 -8 10 -19 10 -25z
m70 -190 c0 -5 -5 -3 -10 5 -5 8 -10 20 -10 25 0 6 5 3 10 -5 5 -8 10 -19 10
-25z m30 -80 c0 -5 -5 -3 -10 5 -5 8 -10 20 -10 25 0 6 5 3 10 -5 5 -8 10 -19
10 -25z m19 -60 c0 -5 -4 -3 -9 5 -5 8 -9 22 -9 30 0 16 17 -16 18 -35z m21
-50 c0 -5 -5 -3 -10 5 -5 8 -10 20 -10 25 0 6 5 3 10 -5 5 -8 10 -19 10 -25z
m29 -85 c0 -10 -3 -8 -9 5 -12 27 -12 43 0 25 5 -8 9 -22 9 -30z m30 -80 c0
-10 -3 -8 -9 5 -12 27 -12 43 0 25 5 -8 9 -22 9 -30z m21 -55 c0 -5 -5 -3 -10
5 -5 8 -10 20 -10 25 0 6 5 3 10 -5 5 -8 10 -19 10 -25z m253 -70 c-9 -19 -18
-33 -21 -31 -4 5 26 66 33 66 3 0 -3 -16 -12 -35z m-32 -68 c-10 -9 -11 -8 -5
6 3 10 9 15 12 12 3 -3 0 -11 -7 -18z m-159 -59 c-4 -4 -8 0 -9 10 -1 9 -4 28
-8 42 -4 15 0 12 10 -9 8 -19 12 -38 7 -43z m139 15 c-12 -20 -14 -14 -5 12 4
9 9 14 11 11 3 -2 0 -13 -6 -23z m-33 -82 l-21 -52 -14 31 c-7 18 -13 37 -13
44 1 6 7 -2 14 -19 l13 -30 18 43 c10 24 19 41 21 39 2 -2 -6 -27 -18 -56z
m-68 -6 c0 -5 -5 -3 -10 5 -5 8 -10 20 -10 25 0 6 5 3 10 -5 5 -8 10 -19 10
-25z m19 -60 c0 -5 -4 -3 -9 5 -5 8 -9 22 -9 30 0 16 17 -16 18 -35z m1 -52
c-11 -17 -11 -17 -6 0 3 10 6 24 7 30 0 9 2 9 5 0 3 -7 0 -20 -6 -30z m-21
-62 c-6 -18 -13 -30 -15 -28 -2 2 1 18 7 36 6 18 13 30 15 28 2 -2 -1 -18 -7
-36z m-38 -108 c-12 -20 -14 -14 -5 12 4 9 9 14 11 11 3 -2 0 -13 -6 -23z
m-27 -92 c-9 -34 -19 -60 -21 -58 -2 3 4 32 13 66 10 33 19 59 21 57 3 -2 -3
-32 -13 -65z m-27 -103 c-3 -7 -5 -2 -5 12 0 14 2 19 5 13 2 -7 2 -19 0 -25z
m-13 -57 c-4 -17 -9 -30 -11 -27 -3 2 -2 19 2 36 9 41 17 33 9 -9z m-17 -108
c-3 -10 -5 -2 -5 17 0 19 2 27 5 18 2 -10 2 -26 0 -35z m-10 -135 c-2 -24 -4
-7 -4 37 0 44 2 63 4 43 2 -21 2 -57 0 -80z m10 -80 c-3 -7 -5 -2 -5 12 0 14
2 19 5 13 2 -7 2 -19 0 -25z"/>
<path d="M4997 6433 c-8 -28 -20 -239 -13 -232 7 6 28 240 22 246 -2 3 -7 -4
-9 -14z"/>
<path d="M4957 5943 c-4 -38 -9 -110 -13 -161 -7 -89 -8 -93 -28 -87 -12 3
-64 8 -116 12 -75 4 -102 2 -130 -11 l-35 -16 35 8 c45 9 152 9 212 -1 36 -6
57 -17 84 -45 36 -37 37 -30 2 18 -17 23 -17 35 -5 188 7 89 10 162 6 162 -3
0 -9 -30 -12 -67z"/>
<path d="M6666 5995 c-9 -26 -7 -32 5 -12 6 10 9 21 6 23 -2 3 -7 -2 -11 -11z"/>
<path d="M6621 5869 c-6 -18 -9 -34 -7 -36 2 -2 9 10 15 28 6 18 9 34 7 36 -2
2 -9 -10 -15 -28z"/>
<path d="M4366 5799 c3 -41 8 -76 10 -78 2 -2 4 28 4 67 0 39 -5 74 -11 77 -7
5 -8 -15 -3 -66z"/>
<path d="M6576 5745 c-9 -26 -7 -32 5 -12 6 10 9 21 6 23 -2 3 -7 -2 -11 -11z"/>
<path d="M7900 5712 c0 -16 291 -452 301 -452 7 0 -279 440 -297 459 -2 2 -4
-1 -4 -7z"/>
<path d="M6536 5635 c-9 -26 -7 -32 5 -12 6 10 9 21 6 23 -2 3 -7 -2 -11 -11z"/>
<path d="M4385 5440 c4 -91 10 -236 14 -323 4 -107 10 -160 18 -165 7 -5 38
-75 69 -157 63 -169 73 -191 74 -159 0 40 69 298 110 413 22 63 37 118 33 124
-3 5 -1 7 4 4 13 -8 36 50 26 66 -3 5 -1 7 4 4 13 -8 26 20 16 35 -3 7 -1 8 5
4 7 -4 18 7 28 26 9 18 27 48 41 66 13 17 21 32 18 32 -11 0 77 70 107 86 16
9 48 19 71 24 l42 9 -52 -3 c-37 -2 -69 -13 -110 -37 -74 -43 -293 -261 -398
-396 -44 -57 -81 -97 -82 -90 -2 6 -9 142 -18 301 -8 159 -18 292 -21 295 -4
3 -3 -68 1 -159z m445 -33 c0 -2 -15 -16 -32 -33 l-33 -29 29 33 c28 30 36 37
36 29z m-100 -100 c0 -1 -24 -25 -52 -52 l-53 -50 50 53 c46 48 55 57 55 49z
m-100 -110 c0 -2 -15 -16 -32 -33 l-33 -29 29 33 c28 30 36 37 36 29z m-60
-70 c0 -2 -10 -12 -22 -23 l-23 -19 19 23 c18 21 26 27 26 19z m-50 -61 c0 -2
-8 -10 -17 -17 -16 -13 -17 -12 -4 4 13 16 21 21 21 13z m-42 -56 c-7 -10 -14
-17 -17 -15 -4 4 18 35 25 35 2 0 -1 -9 -8 -20z"/>
<path d="M6521 5593 c-1 -6 -4 -20 -7 -30 -5 -17 -5 -17 6 0 6 10 9 23 6 30
-3 9 -5 9 -5 0z"/>
<path d="M6491 5509 c-6 -18 -9 -34 -7 -36 2 -2 9 10 15 28 6 18 9 34 7 36 -2
2 -9 -10 -15 -28z"/>
<path d="M6446 5385 c-9 -26 -7 -32 5 -12 6 10 9 21 6 23 -2 3 -7 -2 -11 -11z"/>
<path d="M6430 5343 c0 -6 -53 -18 -117 -28 -64 -10 -128 -21 -142 -26 -48
-14 36 -9 146 9 95 16 136 32 120 49 -4 3 -7 2 -7 -4z"/>
<path d="M5925 5255 c-5 -2 -27 -6 -47 -10 -21 -3 -38 -10 -38 -14 0 -9 136
12 147 23 6 6 -44 7 -62 1z"/>
<path d="M6464 5179 c-50 -40 -50 -39 -33 -39 17 1 99 70 83 70 -6 0 -29 -14
-50 -31z"/>
<path d="M5340 5101 c0 -11 380 -574 403 -596 33 -32 -25 59 -195 309 -208
306 -208 306 -208 287z"/>
<path d="M6265 5019 c-22 -17 -49 -37 -59 -45 -11 -7 -17 -16 -14 -20 8 -7
118 74 118 87 0 12 0 12 -45 -22z"/>
<path d="M6580 4367 c0 -13 13 -54 30 -90 49 -109 71 -202 76 -321 5 -133 -13
-212 -86 -361 -91 -190 -116 -320 -107 -570 6 -165 29 -307 77 -469 18 -58 27
-76 39 -73 9 2 14 10 13 18 -2 8 -17 64 -32 124 -47 180 -62 288 -64 450 -2
225 13 304 84 452 96 197 105 233 105 408 0 168 -14 233 -82 373 -40 80 -53
95 -53 59z m117 -574 c-3 -10 -5 -4 -5 12 0 17 2 24 5 18 2 -7 2 -21 0 -30z"/>
<path d="M4295 4320 c3 -5 0 -8 -7 -5 -7 3 -61 -24 -120 -59 -164 -98 -283
-196 -276 -227 2 -7 -4 -13 -12 -14 -9 0 -21 -18 -29 -45 -7 -25 -18 -53 -22
-62 -16 -32 -9 -29 69 35 146 120 329 248 295 205 -8 -10 7 -38 67 -123 43
-60 83 -110 88 -110 6 0 14 -4 19 -9 5 -5 3 -6 -4 -2 -7 4 -13 4 -13 1 0 -13
262 -375 271 -375 6 0 8 -3 6 -7 -7 -12 89 -144 97 -135 4 4 6 2 4 -5 -2 -6
29 -56 67 -112 l70 -101 123 0 c123 0 123 0 117 23 -17 57 36 -51 99 -203 63
-153 86 -199 86 -174 0 6 -42 112 -94 236 l-94 227 9 133 c4 73 8 167 8 208
-1 62 -2 70 -10 45 -6 -16 -10 -55 -11 -85 -1 -32 -3 -43 -6 -25 -4 28 -6 25
-28 -34 -13 -35 -21 -68 -18 -75 4 -6 0 -4 -8 4 -11 11 -181 404 -245 568 -9
21 -25 13 -19 -10 l6 -23 -11 23 c-7 12 -19 22 -27 22 -35 0 -185 83 -234 130
-29 28 -60 51 -70 51 -10 1 -23 2 -29 3 -7 0 -17 10 -23 21 -15 27 -26 34 -45
28 -13 -4 -13 -3 -2 5 11 8 10 14 -5 36 -18 23 -53 38 -39 16z m4 -74 c-10 -9
-69 -36 -69 -32 0 7 52 35 64 36 5 0 7 -2 5 -4z m20 -30 c-10 -9 -109 -56
-109 -51 0 6 91 54 104 55 5 0 7 -2 5 -4z m-99 -11 c0 -2 -10 -9 -22 -15 -22
-11 -22 -10 -4 4 21 17 26 19 26 11z m-80 -49 c0 -2 -12 -11 -27 -20 l-28 -17
24 20 c23 21 31 25 31 17z m-140 -100 c0 -2 -8 -10 -17 -17 -16 -13 -17 -12
-4 4 13 16 21 21 21 13z m-40 -29 c0 -2 -10 -12 -22 -23 l-23 -19 19 23 c18
21 26 27 26 19z m-60 -51 c0 -2 -8 -10 -17 -17 -16 -13 -17 -12 -4 4 13 16 21
21 21 13z m950 -155 c-1 -12 -39 64 -39 79 0 8 8 -5 19 -29 11 -24 20 -46 20
-50z m29 -66 c0 -5 -6 1 -14 15 -8 14 -14 30 -14 35 0 6 6 -1 14 -15 8 -14 14
-29 14 -35z m30 -70 c0 -5 -6 1 -14 15 -8 14 -14 30 -14 35 0 6 6 -1 14 -15 8
-14 14 -29 14 -35z m45 -111 c3 -8 2 -12 -4 -9 -6 3 -10 10 -10 16 0 14 7 11
14 -7z m26 -59 c0 -5 -5 -3 -10 5 -5 8 -10 20 -10 25 0 6 5 3 10 -5 5 -8 10
-19 10 -25z m20 -50 c0 -5 -5 -3 -10 5 -5 8 -10 20 -10 25 0 6 5 3 10 -5 5 -8
10 -19 10 -25z m90 -52 c-1 -62 -2 -66 -15 -49 -8 11 -15 25 -15 30 0 6 5 4
10 -4 7 -11 10 0 10 38 0 28 2 52 5 52 3 0 5 -30 5 -67z m-70 2 c0 -5 -5 -3
-10 5 -5 8 -10 20 -10 25 0 6 5 3 10 -5 5 -8 10 -19 10 -25z m50 -120 c0 -5
-5 -3 -10 5 -5 8 -10 20 -10 25 0 6 5 3 10 -5 5 -8 10 -19 10 -25z m30 -70 c0
-5 -5 -3 -10 5 -5 8 -10 20 -10 25 0 6 5 3 10 -5 5 -8 10 -19 10 -25z"/>
<path d="M5750 4070 c0 -9 331 -93 338 -85 3 3 3 6 1 8 -13 9 -339 83 -339 77z"/>
<path d="M7040 3839 c0 -5 -4 -7 -10 -4 -5 3 -10 1 -10 -4 0 -6 -29 -30 -65
-53 l-65 -41 20 -22 c11 -12 38 -31 59 -43 45 -25 41 -30 59 63 17 81 22 115
17 115 -3 0 -5 -5 -5 -11z"/>
<path d="M8152 3404 c-57 -97 -101 -178 -98 -182 3 -3 7 -3 9 -1 3 3 192 329
204 352 2 4 1 7 -4 7 -4 0 -54 -79 -111 -176z"/>
<path d="M6110 3162 c0 -6 12 -20 28 -32 15 -12 21 -18 14 -15 -7 4 9 -28 36
-71 27 -44 63 -101 80 -129 18 -27 32 -47 32 -43 0 4 -16 51 -36 103 -20 53
-33 99 -30 102 3 3 48 -18 100 -46 53 -29 96 -47 96 -42 0 5 -53 37 -117 72
-65 34 -137 73 -160 86 -24 14 -43 20 -43 15z m105 -73 c3 -4 0 -11 -6 -15 -8
-5 -9 -3 -4 6 6 10 3 12 -12 8 -12 -3 -20 0 -20 7 0 13 34 9 42 -6z"/>
<path d="M5840 2692 c0 -4 87 -94 193 -199 l192 -191 95 -7 c93 -7 191 -22
158 -24 -11 -1 4 -20 44 -59 l59 -57 -10 -44 c-5 -24 -15 -48 -23 -52 -32 -20
-100 -19 -238 5 -170 29 -246 51 -265 74 -8 9 -28 35 -45 57 -50 64 -261 285
-272 285 -5 0 52 -66 128 -147 75 -82 147 -164 160 -185 26 -41 65 -57 204
-83 121 -23 160 -33 132 -34 -12 -1 -51 -14 -87 -30 -35 -16 -65 -28 -67 -26
-2 2 -44 10 -95 19 -162 28 -227 63 -410 224 -35 30 -63 50 -63 44 0 -13 130
-126 216 -188 34 -24 81 -51 105 -59 24 -9 50 -17 57 -20 17 -6 -28 -94 -79
-155 -117 -140 -105 -269 41 -403 55 -51 71 -72 85 -117 22 -69 60 -137 85
-150 31 -16 50 -12 82 20 29 29 31 30 44 13 31 -39 75 -136 89 -195 11 -48 21
-67 45 -86 l30 -24 -24 -19 c-42 -33 -40 -56 12 -111 27 -28 64 -55 87 -63
l40 -13 -28 -7 c-16 -4 -54 -5 -84 -2 l-55 6 4 -55 c6 -72 32 -106 89 -118 24
-5 45 -10 47 -11 1 -1 -7 -22 -18 -46 -12 -28 -20 -66 -20 -105 0 -51 4 -65
25 -88 13 -14 33 -26 43 -26 41 0 184 179 204 256 l11 41 86 12 c248 34 507
98 609 150 42 21 79 58 82 81 4 29 0 39 -40 80 -33 34 -40 49 -40 81 0 32 10
68 25 86 1 2 24 -19 52 -46 28 -27 79 -62 114 -78 209 -98 208 -97 236 -87 42
14 57 69 43 159 -13 85 -19 91 -155 155 -125 59 -163 72 -227 74 -42 1 -53 -3
-70 -24 -20 -25 -20 -30 -6 -124 3 -17 -6 -22 -55 -32 -53 -10 -59 -10 -68 7
-8 16 -4 24 18 43 27 23 28 29 27 106 0 98 -10 110 -91 110 -41 0 -54 4 -63
19 -16 30 -12 39 21 56 34 18 163 45 215 45 37 0 111 -34 182 -83 37 -25 46
-27 57 -16 8 8 46 50 85 94 91 102 122 154 118 197 -3 35 2 32 -139 97 -109
51 -249 167 -367 304 l-41 48 -20 -40 -21 -40 -36 24 c-69 47 -175 39 -205
-16 -13 -26 -46 -24 -63 4 -21 34 -46 119 -71 241 l-22 111 -59 22 c-76 28
-82 28 -50 -2 22 -20 25 -28 16 -45 -12 -22 -66 -54 -79 -46 -4 3 -125 17
-268 31 l-260 25 -189 190 c-104 104 -192 190 -196 190 -5 0 -8 -4 -8 -8z
m751 -595 c-10 -9 -11 -8 -5 6 3 10 9 15 12 12 3 -3 0 -11 -7 -18z"/>
<path d="M7195 2529 c-16 -5 -41 -18 -55 -29 l-25 -20 35 -31 c49 -43 139
-103 178 -118 65 -27 81 30 36 125 -36 77 -86 98 -169 73z"/>
<path d="M7155 2342 c-45 -28 -145 -122 -145 -137 0 -18 62 -55 103 -62 63
-10 98 29 117 128 16 83 -12 109 -75 71z"/>
<path d="M8056 1752 c-2 -4 -10 -43 -16 -88 -26 -175 26 -216 157 -122 108 78
109 157 1 203 -39 16 -133 21 -142 7z"/>
<path d="M5743 1150 c-56 -25 -135 -106 -131 -134 3 -19 9 -21 69 -20 63 2
255 47 273 64 14 14 -31 67 -77 89 -53 26 -80 26 -134 1z"/>
<path d="M7353 588 c-38 -10 -59 -38 -68 -89 -7 -39 12 -69 43 -69 24 0 112
42 172 83 46 31 50 36 34 45 -56 28 -138 42 -181 30z"/>
<path d="M7765 528 c-38 -21 -45 -57 -24 -116 13 -38 77 -71 156 -79 60 -7 70
3 59 61 -10 51 -46 99 -96 124 -50 25 -66 27 -95 10z"/>
</g>
</svg>
